<svg xmlns="http://www.w3.org/2000/svg" width="33" height="52" fill="#fff" xmlns:v="https://vecta.io/nano"><path d="M11.63 35.663c.878.67 1.976 1.18 3.2 1.47l-.016-2.247c-1.198-.266-2.288-.727-3.208-1.338l.015 2.115zm4.012-.63l.016 2.256a10.36 10.36 0 0 0 1.52.11 10.4 10.4 0 0 0 1.691-.139l-.018-2.247a11.01 11.01 0 0 1-1.673.128 11 11 0 0 1-1.536-.109zm1.128-9.87v.897c-3.33.13-6.106 1.818-7 4.1.75 1.904 2.82 3.398 5.433 3.908.008-.001.016-.003.024-.003a.38.38 0 0 1 .166.037c.446.078.906.13 1.378.147h.818c3.33-.128 6.105-1.818 7-4.1-.895-2.27-3.67-3.96-7-4.1v-.897c3.203.117 5.95 1.6 7.276 3.707l-.004-.83c-.353-2.78-3.447-4.984-7.27-5.132V11.27c2.095-1.922 3.128-3.693 3.15-5.395.023-1.805-1.064-3.688-3.32-5.75-2.388 1.617-3.662 3.355-3.8 5.168-.13 1.853.928 3.885 3.14 6.047v5.474c-.564-2.436-1.775-3.63-3.665-3.63-.848 0-1.847.24-2.972.714.194 4.07 1.494 5.9 4.195 5.9.7 0 1.514-.12 2.443-.363V22.9c-3.812.147-6.9 2.337-7.27 5.104l-.005.855c1.327-2.106 4.072-3.588 7.274-3.705zm-5.978 7.76c-.524-.455-.968-.965-1.313-1.52l-.004.637c.08 1.064.56 2.05 1.33 2.88l-.014-1.998zm-2.12 6.095c3.378 0 6.303 1.518 7.685 3.714l-.004-.83c-.365-2.88-3.67-5.14-7.68-5.14-3.998 0-7.295 2.247-7.678 5.114L1 42.73c1.383-2.194 4.307-3.7 7.683-3.7zm8.826 3.272l-.005.855c1.383-2.195 4.307-3.713 7.683-3.713s6.302 1.52 7.685 3.715l-.004-.83c-.366-2.88-3.67-5.142-7.68-5.142-3.998 0-7.295 2.248-7.678 5.116zm5.385-8.837c-.915.635-2 1.12-3.215 1.403l.018 2.235c1.244-.315 2.346-.857 3.2-1.56l-.014-2.078zM.974 45.265l-.004.646c.082 1.06.56 2.043 1.33 2.87l-.013-1.997c-.524-.455-.968-.965-1.313-1.52zm22.724-12.46l.013 1.935c.675-.787 1.094-1.704 1.17-2.688l-.003-.647a6.7 6.7 0 0 1-1.179 1.4zm3.968 16.328l.017 2.232c1.245-.315 2.348-.857 3.213-1.56l-.015-2.075c-.915.635-2 1.12-3.215 1.403zm-2.5-8.803c-3.5 0-6.478 1.733-7.4 4.097.75 1.903 2.82 3.398 5.433 3.907.008-.001.016-.003.025-.003a.38.38 0 0 1 .166.037c.574.1 1.17.155 1.787.155 3.5 0 6.478-1.733 7.4-4.097-.932-2.364-3.9-4.097-7.4-4.097zm0 9.1c-.525 0-1.038-.04-1.537-.1l.016 2.253a10.36 10.36 0 0 0 1.52.11c.58 0 1.145-.05 1.7-.14l-.017-2.244a11.02 11.02 0 0 1-1.673.127zm7.7-3.738a6.64 6.64 0 0 1-1.18 1.4l.014 1.933c.674-.787 1.093-1.703 1.17-2.686l-.004-.647zm-13.262 2.143l.015 2.113c.878.67 1.976 1.18 3.208 1.47l-.016-2.244c-1.198-.265-2.288-.727-3.208-1.338zm-8.45.89l.017 2.235c1.244-.315 2.346-.858 3.212-1.56l-.015-2.076c-.915.634-2.008 1.118-3.213 1.402zm6.313-3.036l-.004.636c.08 1.064.56 2.05 1.33 2.88L18.8 47.2c-.524-.455-.968-.965-1.313-1.52zm-8.805 3.322a11.02 11.02 0 0 1-1.535-.109l.015 2.255a10.44 10.44 0 0 0 1.521.111 10.38 10.38 0 0 0 1.691-.139l-.017-2.247a11.04 11.04 0 0 1-1.674.128zm0-9.088c-3.5 0-6.478 1.733-7.4 4.094.75 1.903 2.82 3.398 5.433 3.907.01-.001.017-.003.026-.003a.38.38 0 0 1 .166.038 10.38 10.38 0 0 0 1.785.155c3.5 0 6.478-1.733 7.4-4.097-.932-2.362-3.9-4.094-7.4-4.094zM3.1 47.408l.014 2.114c.878.67 1.976 1.18 3.2 1.47l-.015-2.247c-1.19-.265-2.28-.725-3.21-1.337zm16.198-9.316c-.678.134-1.388.205-2.12.205a10.95 10.95 0 0 1-2.105-.203c.93.8 1.6 1.8 1.92 2.888.43-1.116 1.236-2.108 2.304-2.9zM15.2 46.666l.014 1.934c.674-.788 1.093-1.704 1.17-2.688l-.003-.647a6.69 6.69 0 0 1-1.18 1.401z"/></svg>