<svg xmlns="http://www.w3.org/2000/svg" width="29" height="24" fill="none" xmlns:v="https://vecta.io/nano"><path fill-rule="evenodd" d="M6.02 6.625L14.668.177a.86.86 0 0 1 1.375.672v21.36c0 .733-.795 1.13-1.375.703L6.02 16.434H.856c-.458 0-.856-.367-.856-.856V7.48c0-.458.367-.856.856-.856H6.02zm18.7-4.675c-.58-.52-1.497-.49-2.017.122-.52.58-.49 1.497.122 2.017a10.05 10.05 0 0 1 3.331 7.456 10.05 10.05 0 0 1-3.331 7.456c-.58.52-.642 1.436-.122 2.017.275.306.672.49 1.07.49.336 0 .672-.122.947-.367A12.9 12.9 0 0 0 29 11.544c.03-3.667-1.528-7.15-4.278-9.595zm-3.27 4.095a1.44 1.44 0 0 0-2.017.031 1.44 1.44 0 0 0 .03 2.017 4.69 4.69 0 0 1 1.467 3.423 4.69 4.69 0 0 1-1.467 3.422 1.41 1.41 0 0 0-.03 2.017c.275.306.672.428 1.04.428s.703-.122 1.008-.397c1.497-1.436 2.322-3.392 2.322-5.5-.03-2.017-.856-3.973-2.353-5.44z" fill="#000"/></svg>