<svg xmlns="http://www.w3.org/2000/svg" width="33" height="27" fill="none" xmlns:v="https://vecta.io/nano"><path fill-rule="evenodd" d="M17.378.325c-.998-.516-2.202-.413-3.13.275l-7.88 5.85c-.07.07-.206.103-.3.103H2.994C1.342 6.554 0 7.896 0 9.548v7.915c0 1.652 1.342 2.994 2.994 2.994h3.063c.103 0 .206.035.3.103l7.88 5.85a3.01 3.01 0 0 0 1.789.585c.447 0 .93-.103 1.342-.3a3.04 3.04 0 0 0 1.652-2.684V3.01C18.996 1.874 18.376.84 17.378.325zM16.346 24c0 .172-.103.24-.172.275s-.207.07-.3-.034l-7.88-5.85a3.12 3.12 0 0 0-1.893-.619H3.028c-.172 0-.3-.138-.3-.3V9.548c0-.172.138-.3.3-.3H6.09c.688 0 1.342-.206 1.893-.62l7.88-5.85c.138-.103.24-.07.3-.034s.172.103.172.275V24zm12.08-22.574c-.482-.585-1.308-.654-1.893-.172s-.654 1.308-.172 1.893c2.375 2.856 3.682 6.573 3.682 10.358s-1.308 7.502-3.682 10.393c-.482.585-.378 1.41.206 1.893a1.32 1.32 0 0 0 .86.31c.378 0 .757-.172 1.032-.482 2.753-3.372 4.267-7.674 4.267-12.08 0-4.44-1.514-8.74-4.302-12.113zm-5.747 4.267c.62-.413 1.445-.275 1.858.344 1.514 2.202 2.34 4.783 2.34 7.4 0 2.684-.826 5.265-2.34 7.468-.275.378-.688.585-1.1.585a1.24 1.24 0 0 1-.757-.241c-.62-.413-.757-1.24-.344-1.858a10.32 10.32 0 0 0 1.858-5.919c0-2.133-.654-4.164-1.858-5.92-.413-.62-.275-1.445.344-1.858z" fill="#fff"/></svg>