<svg xmlns="http://www.w3.org/2000/svg" xmlns:xlink="http://www.w3.org/1999/xlink" width="58" height="57" fill="none" xmlns:v="https://vecta.io/nano"><g fill="#fff"><path d="M42.765 35.988c-1.438 0-2.588-1.26-2.588-2.835 0-1.386 1.783-3.906 2.185-4.4l.403-.567.403.567c.345.504 2.185 3.024 2.185 4.4-.058 1.575-1.208 2.835-2.588 2.835zm0-5.985c-.748 1.07-1.553 2.52-1.553 3.15 0 .945.7 1.7 1.553 1.7s1.553-.756 1.553-1.7c0-.63-.863-2.016-1.553-3.15zm-13.17 5.985c-1.438 0-2.588-1.26-2.588-2.835 0-1.386 1.783-3.906 2.185-4.4l.403-.567.402.567c.345.504 2.185 3.024 2.185 4.4 0 1.575-1.15 2.835-2.588 2.835zm0-5.985c-.748 1.07-1.553 2.52-1.553 3.15 0 .945.7 1.7 1.553 1.7s1.553-.756 1.553-1.7c0-.63-.805-2.016-1.553-3.15zM14.76 35.988c-1.438 0-2.588-1.26-2.588-2.835 0-1.386 1.783-3.906 2.185-4.4l.402-.567.403.567c.345.504 2.185 3.024 2.185 4.4 0 1.575-1.15 2.835-2.588 2.835zm0-5.985c-.748 1.07-1.553 2.52-1.553 3.15 0 .945.7 1.7 1.553 1.7s1.553-.756 1.553-1.7c0-.63-.805-2.016-1.553-3.15zm14.433 21.735a.53.53 0 0 1-.518-.504c0-.315.173-.567.46-.567.115 0 3.22-.252 4.715-3.78 1.265-2.898.23-5.355-.172-6.174-.805.126-3.163.82-4.428 3.717-.633 1.512-.805 3.087-.402 4.662.057.315-.058.63-.345.693s-.575-.063-.633-.378c-.288-1.26-.518-3.213.46-5.418 1.783-4.095 5.463-4.4 5.578-4.4a.51.51 0 0 1 .46.252c.115.126 2.185 3.402.403 7.56-1.725 4.095-5.348 4.347-5.578 4.347h0z"/><path d="M29.08 51.738c-.173 0-3.853-.315-5.636-4.4s.345-7.434.402-7.56c.115-.126.287-.252.46-.252.115 0 2.473.19 4.37 2.394.173.252.173.567 0 .756-.23.19-.517.19-.7 0-1.265-1.45-2.76-1.9-3.393-2.016-.403.82-1.438 3.213-.172 6.174 1.495 3.528 4.6 3.78 4.715 3.78a.5.5 0 0 1 .46.567c0 .378-.23.567-.518.567z"/><use xlink:href="#B"/><path d="M44.778 51.738a.53.53 0 0 1-.518-.504c0-.315.173-.567.46-.567.115 0 3.22-.252 4.715-3.78 1.265-2.898.23-5.355-.173-6.174-.805.126-3.163.82-4.428 3.717-.633 1.512-.805 3.087-.403 4.662.058.315-.058.63-.345.693s-.575-.063-.633-.378c-.288-1.26-.518-3.213.46-5.418 1.783-4.095 5.463-4.4 5.578-4.4a.51.51 0 0 1 .46.252c.115.126 2.185 3.402.402 7.56-1.725 4.095-5.405 4.347-5.578 4.347z"/><path d="M44.663 51.738c-.058 0-.058 0 0 0-.172 0-3.853-.315-5.635-4.4s.345-7.434.402-7.56c.115-.126.288-.252.46-.252.115 0 2.473.19 4.37 2.394.172.252.172.567 0 .756-.23.19-.518.19-.7 0-1.265-1.45-2.76-1.9-3.393-2.016-.403.82-1.438 3.213-.172 6.174 1.495 3.528 4.6 3.78 4.715 3.78a.5.5 0 0 1 .46.567c-.058.378-.288.567-.518.567z"/><use xlink:href="#B" x="15.527"/><path d="M13.494 51.738a.53.53 0 0 1-.518-.504c0-.315.173-.567.46-.567.115 0 3.22-.252 4.716-3.78 1.265-2.898.23-5.355-.172-6.174-.805.126-3.163.82-4.428 3.717-.633 1.512-.805 3.087-.402 4.662.057.315-.058.63-.345.693s-.575-.063-.633-.378c-.288-1.26-.518-3.213.46-5.418 1.783-4.095 5.463-4.4 5.578-4.4a.51.51 0 0 1 .46.252c.115.126 2.185 3.402.403 7.56-1.725 4.095-5.348 4.347-5.578 4.347h0z"/><path d="M13.38 51.738c-.173 0-3.853-.315-5.636-4.4s.345-7.434.403-7.56c.115-.126.288-.252.46-.252.115 0 2.473.19 4.37 2.394.172.252.172.567 0 .756-.23.19-.518.19-.7 0-1.208-1.45-2.76-1.9-3.393-2.016-.403.82-1.438 3.213-.173 6.11 1.495 3.528 4.6 3.78 4.715 3.78a.5.5 0 0 1 .46.567c0 .44-.23.63-.518.63z"/><use xlink:href="#B" x="-15.699"/><path d="M22.063 8.772H.843c-.288 0-.518-.252-.518-.567s.23-.567.518-.567h21.22c.288 0 .518.252.518.567s-.23.567-.518.567zm35.25 0h-21.22c-.288 0-.517-.252-.517-.567s.23-.567.517-.567h21.22c.288 0 .518.252.518.567s-.23.567-.518.567zM13.437 5.8c-.287 0-.518-.252-.518-.567v-1.7c.058-.82-.575-1.45-1.323-1.45s-1.323.63-1.323 1.45v1.7c0 .315-.23.567-.518.567s-.518-.252-.518-.567v-1.7c0-1.45 1.035-2.583 2.358-2.583s2.358 1.134 2.358 2.583v1.7c0 .315-.23.567-.518.567zm35.136 0c-.287 0-.517-.252-.517-.567v-1.7c0-.82-.633-1.45-1.38-1.45s-1.323.63-1.323 1.45v1.7c0 .315-.23.567-.518.567s-.518-.252-.518-.567v-1.7c0-1.45 1.035-2.583 2.358-2.583s2.358 1.134 2.358 2.583v1.7c0 .315-.23.567-.46.567z"/><path d="M27.583 20.112H13.437c-2.3 0-4.198-2.08-4.198-4.6V8.205c0-.315.23-.567.518-.567s.518.252.518.567v7.308c0 1.953 1.438 3.465 3.163 3.465h14.147c.287 0 .518.252.518.567s-.23.567-.518.567zm16.39-4.032H14.357c-.747 0-1.38-.693-1.38-1.512v-6.3c0-.315.23-.567.518-.567s.518.252.518.567v6.3c0 .252.172.378.345.378h29.616c.23 0 .345-.2.345-.378v-6.3c0-.315.23-.567.517-.567s.518.252.518.567v6.3c0 .82-.633 1.512-1.38 1.512z"/><path d="M44.835 20.112H31.6c-.287 0-.517-.252-.517-.567s.23-.567.517-.567h13.226c1.783 0 3.163-1.575 3.163-3.465V8.205c0-.315.23-.567.518-.567s.517.252.517.567v7.308c0 2.52-1.84 4.6-4.198 4.6zM17.462 26.8h-4.025c-.288 0-.518-.252-.518-.567v-6.678c0-.315.23-.567.518-.567s.518.252.518.567v6.1h3.048v-6.1c0-.315.23-.567.518-.567s.517.252.517.567v6.678c-.057.315-.287.567-.575.567z"/><path d="M31.6 26.8h-4.025c-.288 0-.518-.252-.518-.567v-6.678c0-.315.23-.567.518-.567s.518.252.518.567v6.1h3v-6.1c0-.315.23-.567.517-.567s.518.252.518.567v6.678c0 .315-.23.567-.518.567zm14.145 0H41.73c-.288 0-.517-.252-.517-.567v-6.678c0-.315.23-.567.517-.567s.518.252.518.567v6.1h3v-6.1c0-.315.23-.567.517-.567s.518.252.518.567v6.678c0 .315-.23.567-.518.567z"/></g><defs ><path id="B" d="M29.136 56.148c-.288 0-.518-.252-.518-.567v-4.347c0-.315.23-.567.518-.567s.518.252.518.567v4.347c0 .315-.23.567-.518.567z"/></defs></svg>