<svg xmlns="http://www.w3.org/2000/svg" width="106" height="106" fill="none" xmlns:v="https://vecta.io/nano"><g filter="url(#A)"><path d="M52.834 91.87c23.928 0 43.334-19.33 43.334-43.185S76.762 5.5 52.834 5.5 9.5 24.83 9.5 48.685 28.906 91.87 52.834 91.87z" fill="#fff" stroke="#424242" stroke-width="3"/><path d="M65 49.5L46 36V63L65 49.5Z" fill="#424242"/><path d="M28.332 34.383c1.066-1.657 3.265-2.253 4.93-1.193 1.733 1.06 2.266 3.247 1.2 5.037-2.4 3.9-3.6 8.682-3.132 13.72 1.066 10.67 9.863 19.153 20.66 19.882 13.062.862 23.924-9.477 23.79-22.334-.133-11.93-9.93-21.738-21.858-21.937-.666 0-1.266 0-1.933.066v2.784c0 1.127-1.266 1.79-2.2 1.193l-10.396-6.43c-.866-.53-.866-1.856 0-2.386l10.463-6.56c.933-.597 2.2.066 2.2 1.193v2.916h1.466c16.993 0 30.72 14.38 29.39 31.546-1.066 14.382-12.728 25.98-27.123 27.04C38.528 80.178 24 66.592 24 49.692a29.11 29.11 0 0 1 4.332-15.309z" fill="#424242"/></g><defs><filter id="A" x="0" y="0" width="105.668" height="105.37" filterUnits="userSpaceOnUse" color-interpolation-filters="sRGB"><feFlood flood-opacity="0" result="A"/><feColorMatrix in="SourceAlpha" values="0 0 0 0 0 0 0 0 0 0 0 0 0 0 0 0 0 0 127 0"/><feOffset dy="4"/><feGaussianBlur stdDeviation="4"/><feColorMatrix values="0 0 0 0 0 0 0 0 0 0 0 0 0 0 0 0 0 0 0.25 0"/><feBlend in2="A"/><feBlend in="SourceGraphic"/></filter></defs></svg>