<svg xmlns="http://www.w3.org/2000/svg" width="28" height="36" fill="#303030" xmlns:v="https://vecta.io/nano"><path fill-rule="evenodd" d="M25.363 31.695V2.09c0-.238-.205-.43-.458-.43h-2.218c-.158.922-.855 1.622-1.685 1.622h-7.25c-.83 0-1.527-.7-1.685-1.622h-2.37c-.168 0-.305.13-.305.287V7.43c-.566.017-1.122.068-1.667.152V1.945c0-1.027.882-1.86 1.972-1.86h15.2c1.174 0 2.125.897 2.124 2.004v31.36c0 1.107-.95 2.004-2.125 2.004H9.85c-1.174 0-2.125-.897-2.125-2.004V31.4c.545.084 1.1.135 1.667.152v1.896c0 .238.205.43.458.43h15.057c.252 0 .458-.194.458-.43v-1.754zm-17.64-3.173a10.37 10.37 0 0 0 1.667.199V23.57l-1.667-1.572v6.524zm0-10.02v-8.04a10.37 10.37 0 0 1 1.667-.2v4.933H8.9c-.233 0-.423.18-.423.4v3.6l-.647-.6a.42.42 0 0 0-.106-.073zM20.14 2.05c0-.163-.14-.295-.313-.295s-.312.132-.313.295.14.295.313.295.313-.132.313-.295zm-1.582-.295h-3.945c-.173 0-.313.132-.313.295s.14.295.313.295h3.945c.173 0 .313-.132.313-.295s-.14-.295-.313-.295z"/><path d="M9.798 10.254C4.386 10.254 0 14.4 0 19.492s4.386 9.238 9.798 9.238 9.798-4.136 9.798-9.238-4.387-9.238-9.798-9.238zm3.837 10.082l-3.538 3.336a.44.44 0 0 1-.598 0L5.96 20.336c-.165-.156-.165-.41 0-.564l1.27-1.198c.165-.156.433-.156.598 0l.647.6v-3.6c0-.22.19-.4.423-.4h1.797c.234 0 .423.18.423.4v3.6l.647-.6c.165-.156.433-.156.598 0l1.27 1.198c.166.156.166.41 0 .564z"/></svg>