<svg xmlns="http://www.w3.org/2000/svg" width="17" height="38" fill="none" xmlns:v="https://vecta.io/nano"><path d="M14.66.25H3.045C1.755.25.71 1.4.71 2.815v32.113c0 1.415 1.046 2.563 2.336 2.563H14.66c1.3 0 2.336-1.148 2.336-2.563V2.815C16.997 1.4 15.95.25 14.66.25zm-7.34 2.6h3.785c.1 0 .183.1.183.2s-.082.2-.183.2H7.32c-.1 0-.183-.1-.183-.2s.082-.2.183-.2zm1.565 33.616c-.68 0-1.233-.605-1.233-1.353s.552-1.353 1.233-1.353 1.233.605 1.233 1.353-.552 1.353-1.233 1.353zm7.268-3.453H1.488V4.88h14.665v28.125z" fill="#f5f5f5"/></svg>