<svg xmlns="http://www.w3.org/2000/svg" width="23" height="51" fill="none" xmlns:v="https://vecta.io/nano"><path d="M12.95.94l-.178 1.534.332.045.803.195h.02l.1.036.417-1.468-.156-.054-.06-.015-.92-.222-.354-.05zm-2.98.01l-.428.06-.058.015-.92.225-.085.03.42 1.468.077-.03h.01l.77-.186.4-.057L9.972.948zM5.754 2.57l-.488.34-.047.033-.666.543.84 1.234.617-.5.016-.015.47-.318-.743-1.306zm11.413.042l-.74 1.29.41.28.014.015.62.504.01.015.014.015.1-.165.803-1-.033-.03-.044-.042-.693-.56-.047-.036-.425-.285zM11.446 3.9c-4.396 0-7.97 3.947-7.97 8.79 0 2.66 1.22 4.457 2.297 6.24.636 1.052 1.234 2.114 1.623 3.423l-.523-.28h-.005l-.422-.28-.726 1.315.428.282.055.03.81.438.493-1.105c.198.787.322 1.664.33 2.684a.84.84 0 0 0 .003.21v3.735a.84.84 0 0 0 .014.15c.024.128.076.245.15.342a.69.69 0 0 0 .241.205.65.65 0 0 0 .296.071h2.253v6.96c-1.225-2.83-3.838-4.77-6.835-4.77-.9 0-1.786.183-2.626.525a.72.72 0 0 0-.352.317.83.83 0 0 0-.1.487c.435 4.192 3.684 7.37 7.534 7.375.813 0 1.612-.166 2.38-.447v9.422h1.403v-5.825c.76.28 1.552.442 2.354.444 3.817 0 7.035-3.15 7.466-7.302a.83.83 0 0 0-.099-.489.72.72 0 0 0-.353-.319c-.832-.34-1.71-.516-2.598-.52-2.972 0-5.556 1.917-6.77 4.717V30.152h2.16a.61.61 0 0 0 .071-.006.64.64 0 0 0 .137-.03c.143-.05.268-.146.356-.278a.82.82 0 0 0 .137-.455v-3.738a.84.84 0 0 0 .003-.216c.007-1.043.136-1.94.343-2.738l.518 1.147.81-.438.055-.033.362-.243-.73-1.312-.337.225-.584.315c.39-1.31.987-2.37 1.623-3.423 1.077-1.783 2.297-3.58 2.297-6.24 0-4.842-3.574-8.79-7.97-8.79zm0 1.537c3.632 0 6.567 3.234 6.567 7.25 0 2.152-.96 3.566-2.064 5.393-1.005 1.663-1.98 3.762-2.165 6.672h-1.636v-4.9c.001-.102-.016-.203-.05-.297a.78.78 0 0 0-.152-.253.7.7 0 0 0-.229-.169.65.65 0 0 0-.542 0c-.086.04-.163.097-.23.17a.78.78 0 0 0-.151.253c-.035.095-.052.196-.05.297v4.9H9.108c-.185-2.91-1.16-5.008-2.165-6.672-1.103-1.826-2.064-3.24-2.064-5.393 0-4.017 2.934-7.25 6.567-7.25zm-8.968.47L2.1 6.53l-.033.05-.35.697 1.225.745.334-.66.367-.59-1.165-.865zm17.952.033l-1.16.865.318.516.38.74 1.222-.754-.39-.763-.033-.054-.34-.55zM.702 10.35l-.005.018-.014.066-.145.98-.008.066L.494 12l1.4.114.036-.505.13-.883h.003l.005-.04-.455-.087-.9-.252zm21.507.096l-1.384.255.134.88.04.577 1.4-.123-.044-.603-.008-.066-.14-.92zM2.065 14.967l-1.38.288.04.246.014.063.227.913.02.063.107.318 1.318-.528-.104-.312L2.306 16l-.203-.814-.038-.22zm18.755.048l-.025.144-.208.853-.005.02-.112.333 1.318.525.132-.396.016-.063.228-.913.01-.063.027-.168-1.38-.273zM3.613 18.88l-1.157.874.184.294.036.05.548.733.04.05.145.165 1.01-1.072-.134-.153-.014-.015-.488-.655-.17-.273zm15.647.036l-.132.2-.01.018-.49.658-.178.204 1.01 1.066.197-.225.038-.048.545-.736.036-.05.142-.23-1.16-.865zM9.24 26.3h2.077a.64.64 0 0 0 .244 0h2.09v2.324H9.24V26.3zm-5.284 7.588h.003c2.924 0 5.325 2.27 5.947 5.333-.493.138-.984.295-1.494.297-2.926 0-5.328-2.268-5.95-5.333.493-.138.984-.295 1.494-.297zm15.003 3.67h.003c.502 0 .984.16 1.47.294-.618 3.023-2.99 5.257-5.876 5.26-.503 0-.986-.156-1.472-.29.618-3.023 2.99-5.26 5.876-5.264z" fill="#fff"/></svg>