<svg xmlns="http://www.w3.org/2000/svg" width="39" height="55" fill="#fff" xmlns:v="https://vecta.io/nano"><path d="M29.862 19.502c1.896.308 3.653-1.118 3.932-3.188s-1.02-3.998-2.917-4.307C29 11.7 27.228 13.133 26.95 15.2s1.027 3.995 2.912 4.303zm3.406 7.905l1.667 2.057 1.15 7.317 2.104-.257-.395-7.936a1.68 1.68 0 0 0-.376-.901l-4.916-6.04-.014.016c-.528-.608-1.267-.992-2.1-.998a2.93 2.93 0 0 0-1.121.252l-4.824-2.64-4.713-6.097-1.595 1.098 4.292 7.34a1.47 1.47 0 0 0 .449.382l4.587 2.513c-.01.1-.032.212-.032.325l-.088 10.203c-.002.088.018.174.02.264l-1.254 8.48-.598 9.376 2.645.443 1.578-9.28.537-3.63L32.196 55l2.827-.42-1.83-20.368c.001-.035.014-.07.014-.1l.063-6.694z"/><path d="M8.1 19.586c1.9-.306 3.194-2.234 2.913-4.302s-2.04-3.5-3.93-3.2S3.888 14.327 4.17 16.4s2.036 3.497 3.93 3.187zm9.77-8.826l-3.112 7.148-5.36 2.65c-.256-.08-.523-.137-.802-.137h-.03c-.7.006-1.35.298-1.855.77l-5.584 4.33c-.367.282-.6.735-.614 1.228L.46 35.48l2.26.118.68-7.917 2.285-1.768.07 7.948a2.93 2.93 0 0 0 .046.44l-1.048 8.2-1.242 11.96L6.4 55l1.98-11.882.556-4.384 1.058 4.32.632 10.116 2.903-.086.12-10.377a2.14 2.14 0 0 0-.06-.467l-2-8.127.023-.318-.1-10.2a3.36 3.36 0 0 0-.055-.54l5.024-2.482a1.58 1.58 0 0 0 .748-.848l2.5-7.542-1.87-1.423zm6.6-1.56h-1.153c-.314 0-.575-.286-.575-.63 0-.352.26-.634.575-.634h1.153c.318 0 .576.282.576.634 0 .343-.258.63-.576.63zm-2.263-4.202c-.224.243-.6.243-.814 0a.68.68 0 0 1 0-.895l.814-.892a.54.54 0 0 1 .814 0c.224.25.224.645 0 .892l-.814.895zm-4.075-1.48c-.317 0-.575-.282-.575-.63V1.614c0-.35.257-.63.575-.63s.578.28.578.63v1.262c-.001.348-.26.63-.578.63zm-4.074 1.48l-.815-.895c-.224-.247-.224-.643 0-.892a.54.54 0 0 1 .815 0l.815.892c.226.25.226.648 0 .895s-.6.243-.815 0zm-.536 3.572c0 .342-.258.63-.577.63h-1.15c-.32 0-.577-.286-.577-.63 0-.352.256-.634.577-.634h1.15c.32.001.577.283.577.634zm9.562 36.64l12.974 1.87-2.86-12.976-5.844-1.15-4.27 12.255z"/></svg>